# xmcd CD database file
# Copyright (C) 1996 Ti Kan
#
# Track frame offsets:
#	150
#	17917
#	42755
#	70045
#	90782
# Disc length: 1714 seconds
#
# Revision: 1
# Processed by: cddbd v1.4PL0 Copyright (c) Steve Scherf et al.
# Submitted via: CDCOPY 4.900
#
DISCID=2e06b005
DTITLE=Erykah Badu - Bonnus cd with mama's gun
DYEAR=1900
DGENRE=
TTITLE0=Tyrone (live)
TTITLE1=Hollywood
TTITLE2=Drama
TTITLE3=You precious love (Feat. D'Angelo)
TTITLE4=Bag Lady (Basement boys - Afrocentric remix)
EXTD=
EXTT0=
EXTT1=
EXTT2=
EXTT3=
EXTT4=
PLAYORDER=
